<mxfile host="app.diagrams.net" modified="2023-06-21T23:55:20.721Z" agent="Mozilla/5.0 (Windows NT 10.0; Win64; x64) AppleWebKit/537.36 (KHTML, like Gecko) Chrome/114.0.0.0 Safari/537.36" version="21.5.0" etag="zgdS_bsLQ7tbKqr-GBJh" type="github">
  <diagram name="Page-1" id="DOFlKtkjeTnumW-EdzeH">
    <mxGraphModel>
      <root>
        <mxCell id="0" />
        <mxCell id="1" parent="0" />
      </root>
    </mxGraphModel>
  </diagram>
</mxfile>
